<svg width="407" height="120" viewBox="0 0 407 120" fill="none" xmlns="http://www.w3.org/2000/svg">
<g clip-path="url(#clip0_110_6668)">
<g opacity="0.09" filter="url(#filter0_i_110_6668)">
<path d="M2.03955e-06 95L-30 77.4924V42.4975L2.03955e-06 25L30 42.4975V77.4924L2.03955e-06 95Z" fill="url(#paint0_linear_110_6668)"/>
<path d="M68 95L38 77.4924V42.4975L68 25L98 42.4975V77.4924L68 95Z" fill="url(#paint1_linear_110_6668)"/>
<g filter="url(#filter1_i_110_6668)">
<path d="M136 95L106 77.4924V42.4975L136 25L166 42.4975V77.4924L136 95Z" fill="url(#paint2_linear_110_6668)"/>
</g>
<path d="M204 95L174 77.4924V42.4975L204 25L234 42.4975V77.4924L204 95Z" fill="url(#paint3_linear_110_6668)"/>
<path d="M272 95L242 77.4924V42.4975L272 25L302 42.4975V77.4924L272 95Z" fill="url(#paint4_linear_110_6668)"/>
<path d="M340 95L310 77.4924V42.4975L340 25L370 42.4975V77.4924L340 95Z" fill="url(#paint5_linear_110_6668)"/>
<path d="M408 95L378 77.4924V42.4975L408 25L438 42.4975V77.4924L408 95Z" fill="url(#paint6_linear_110_6668)"/>
</g>
<g opacity="0.09" filter="url(#filter2_i_110_6668)">
<path d="M34 155L4 137.492V102.497L34 85L64 102.497V137.492L34 155Z" fill="url(#paint7_linear_110_6668)"/>
<path d="M102 155L72 137.492V102.497L102 85L132 102.497V137.492L102 155Z" fill="url(#paint8_linear_110_6668)"/>
<path d="M170 155L140 137.492V102.497L170 85L200 102.497V137.492L170 155Z" fill="url(#paint9_linear_110_6668)"/>
<path d="M238 155L208 137.492V102.497L238 85L268 102.497V137.492L238 155Z" fill="url(#paint10_linear_110_6668)"/>
<path d="M306 155L276 137.492V102.497L306 85L336 102.497V137.492L306 155Z" fill="url(#paint11_linear_110_6668)"/>
<path d="M374 155L344 137.492V102.497L374 85L404 102.497V137.492L374 155Z" fill="url(#paint12_linear_110_6668)"/>
</g>
<g opacity="0.09" filter="url(#filter3_i_110_6668)">
<path d="M34 35L4 17.4924V-17.5025L34 -35L64 -17.5025V17.4924L34 35Z" fill="url(#paint13_linear_110_6668)"/>
<path d="M102 35.0001L72 17.4925V-0.00496101L102 -6L132 -17.5024V17.4925L102 35.0001Z" fill="url(#paint14_linear_110_6668)"/>
<path d="M170 35L140 17.4924V-17.5025L170 -35L200 -17.5025V17.4924L170 35Z" fill="url(#paint15_linear_110_6668)"/>
<path d="M238 35L208 17.4924V-17.5025L238 -35L268 -17.5025V17.4924L238 35Z" fill="url(#paint16_linear_110_6668)"/>
<path d="M306 35L276 17.4924V-17.5025L306 -35L336 -17.5025V17.4924L306 35Z" fill="url(#paint17_linear_110_6668)"/>
<path d="M374 35L344 17.4924V-17.5025L374 -35L404 -17.5025V17.4924L374 35Z" fill="url(#paint18_linear_110_6668)"/>
</g>
</g>
<defs>
<filter id="filter0_i_110_6668" x="-34" y="25" width="476" height="70" filterUnits="userSpaceOnUse" color-interpolation-filters="sRGB">
<feFlood flood-opacity="0" result="BackgroundImageFix"/>
<feBlend mode="normal" in="SourceGraphic" in2="BackgroundImageFix" result="shape"/>
<feColorMatrix in="SourceAlpha" type="matrix" values="0 0 0 0 0 0 0 0 0 0 0 0 0 0 0 0 0 0 127 0" result="hardAlpha"/>
<feOffset dx="1" dy="1"/>
<feComposite in2="hardAlpha" operator="arithmetic" k2="-1" k3="1"/>
<feColorMatrix type="matrix" values="0 0 0 0 1 0 0 0 0 1 0 0 0 0 1 0 0 0 1 0"/>
<feBlend mode="normal" in2="shape" result="effect1_innerShadow_110_6668"/>
</filter>
<filter id="filter1_i_110_6668" x="106" y="25" width="60" height="70" filterUnits="userSpaceOnUse" color-interpolation-filters="sRGB">
<feFlood flood-opacity="0" result="BackgroundImageFix"/>
<feBlend mode="normal" in="SourceGraphic" in2="BackgroundImageFix" result="shape"/>
<feColorMatrix in="SourceAlpha" type="matrix" values="0 0 0 0 0 0 0 0 0 0 0 0 0 0 0 0 0 0 127 0" result="hardAlpha"/>
<feOffset dx="1" dy="1"/>
<feComposite in2="hardAlpha" operator="arithmetic" k2="-1" k3="1"/>
<feColorMatrix type="matrix" values="0 0 0 0 1 0 0 0 0 1 0 0 0 0 1 0 0 0 1 0"/>
<feBlend mode="normal" in2="shape" result="effect1_innerShadow_110_6668"/>
</filter>
<filter id="filter2_i_110_6668" x="0" y="85" width="476" height="70" filterUnits="userSpaceOnUse" color-interpolation-filters="sRGB">
<feFlood flood-opacity="0" result="BackgroundImageFix"/>
<feBlend mode="normal" in="SourceGraphic" in2="BackgroundImageFix" result="shape"/>
<feColorMatrix in="SourceAlpha" type="matrix" values="0 0 0 0 0 0 0 0 0 0 0 0 0 0 0 0 0 0 127 0" result="hardAlpha"/>
<feOffset dx="1" dy="1"/>
<feComposite in2="hardAlpha" operator="arithmetic" k2="-1" k3="1"/>
<feColorMatrix type="matrix" values="0 0 0 0 1 0 0 0 0 1 0 0 0 0 1 0 0 0 1 0"/>
<feBlend mode="normal" in2="shape" result="effect1_innerShadow_110_6668"/>
</filter>
<filter id="filter3_i_110_6668" x="0" y="-35" width="476" height="70" filterUnits="userSpaceOnUse" color-interpolation-filters="sRGB">
<feFlood flood-opacity="0" result="BackgroundImageFix"/>
<feBlend mode="normal" in="SourceGraphic" in2="BackgroundImageFix" result="shape"/>
<feColorMatrix in="SourceAlpha" type="matrix" values="0 0 0 0 0 0 0 0 0 0 0 0 0 0 0 0 0 0 127 0" result="hardAlpha"/>
<feOffset dx="1" dy="1"/>
<feComposite in2="hardAlpha" operator="arithmetic" k2="-1" k3="1"/>
<feColorMatrix type="matrix" values="0 0 0 0 1 0 0 0 0 1 0 0 0 0 1 0 0 0 1 0"/>
<feBlend mode="normal" in2="shape" result="effect1_innerShadow_110_6668"/>
</filter>
<linearGradient id="paint0_linear_110_6668" x1="-95.2942" y1="59.9967" x2="1498.12" y2="59.9967" gradientUnits="userSpaceOnUse">
<stop stop-color="#52595C"/>
<stop offset="0.9992"/>
</linearGradient>
<linearGradient id="paint1_linear_110_6668" x1="-27.2942" y1="59.9967" x2="1566.12" y2="59.9967" gradientUnits="userSpaceOnUse">
<stop stop-color="#52595C"/>
<stop offset="0.9992"/>
</linearGradient>
<linearGradient id="paint2_linear_110_6668" x1="40.7058" y1="59.9967" x2="1634.12" y2="59.9967" gradientUnits="userSpaceOnUse">
<stop stop-color="#52595C"/>
<stop offset="0.9992"/>
</linearGradient>
<linearGradient id="paint3_linear_110_6668" x1="108.706" y1="59.9967" x2="1702.12" y2="59.9967" gradientUnits="userSpaceOnUse">
<stop stop-color="#52595C"/>
<stop offset="0.9992"/>
</linearGradient>
<linearGradient id="paint4_linear_110_6668" x1="176.706" y1="59.9967" x2="1770.12" y2="59.9967" gradientUnits="userSpaceOnUse">
<stop stop-color="#52595C"/>
<stop offset="0.9992"/>
</linearGradient>
<linearGradient id="paint5_linear_110_6668" x1="244.706" y1="59.9967" x2="1838.12" y2="59.9967" gradientUnits="userSpaceOnUse">
<stop stop-color="#52595C"/>
<stop offset="0.9992"/>
</linearGradient>
<linearGradient id="paint6_linear_110_6668" x1="312.706" y1="59.9967" x2="1906.12" y2="59.9967" gradientUnits="userSpaceOnUse">
<stop stop-color="#52595C"/>
<stop offset="0.9992"/>
</linearGradient>
<linearGradient id="paint7_linear_110_6668" x1="-61.2942" y1="119.997" x2="1532.12" y2="119.997" gradientUnits="userSpaceOnUse">
<stop stop-color="#52595C"/>
<stop offset="0.9992"/>
</linearGradient>
<linearGradient id="paint8_linear_110_6668" x1="6.70583" y1="119.997" x2="1600.12" y2="119.997" gradientUnits="userSpaceOnUse">
<stop stop-color="#52595C"/>
<stop offset="0.9992"/>
</linearGradient>
<linearGradient id="paint9_linear_110_6668" x1="74.7058" y1="119.997" x2="1668.12" y2="119.997" gradientUnits="userSpaceOnUse">
<stop stop-color="#52595C"/>
<stop offset="0.9992"/>
</linearGradient>
<linearGradient id="paint10_linear_110_6668" x1="142.706" y1="119.997" x2="1736.12" y2="119.997" gradientUnits="userSpaceOnUse">
<stop stop-color="#52595C"/>
<stop offset="0.9992"/>
</linearGradient>
<linearGradient id="paint11_linear_110_6668" x1="210.706" y1="119.997" x2="1804.12" y2="119.997" gradientUnits="userSpaceOnUse">
<stop stop-color="#52595C"/>
<stop offset="0.9992"/>
</linearGradient>
<linearGradient id="paint12_linear_110_6668" x1="278.706" y1="119.997" x2="1872.12" y2="119.997" gradientUnits="userSpaceOnUse">
<stop stop-color="#52595C"/>
<stop offset="0.9992"/>
</linearGradient>
<linearGradient id="paint13_linear_110_6668" x1="-61.2942" y1="-0.00332498" x2="1532.12" y2="-0.00332498" gradientUnits="userSpaceOnUse">
<stop stop-color="#52595C"/>
<stop offset="0.9992"/>
</linearGradient>
<linearGradient id="paint14_linear_110_6668" x1="6.70583" y1="-0.00331531" x2="1600.12" y2="-0.00331531" gradientUnits="userSpaceOnUse">
<stop stop-color="#52595C"/>
<stop offset="0.9992"/>
</linearGradient>
<linearGradient id="paint15_linear_110_6668" x1="74.7058" y1="-0.00332498" x2="1668.12" y2="-0.00332498" gradientUnits="userSpaceOnUse">
<stop stop-color="#52595C"/>
<stop offset="0.9992"/>
</linearGradient>
<linearGradient id="paint16_linear_110_6668" x1="142.706" y1="-0.00332498" x2="1736.12" y2="-0.00332498" gradientUnits="userSpaceOnUse">
<stop stop-color="#52595C"/>
<stop offset="0.9992"/>
</linearGradient>
<linearGradient id="paint17_linear_110_6668" x1="210.706" y1="-0.00332498" x2="1804.12" y2="-0.00332498" gradientUnits="userSpaceOnUse">
<stop stop-color="#52595C"/>
<stop offset="0.9992"/>
</linearGradient>
<linearGradient id="paint18_linear_110_6668" x1="278.706" y1="-0.00332498" x2="1872.12" y2="-0.00332498" gradientUnits="userSpaceOnUse">
<stop stop-color="#52595C"/>
<stop offset="0.9992"/>
</linearGradient>
<clipPath id="clip0_110_6668">
<rect width="407" height="120" fill="white"/>
</clipPath>
</defs>
</svg>
